<?xml version="1.0" ?><!DOCTYPE svg  PUBLIC '-//W3C//DTD SVG 1.1//EN'  'http://www.w3.org/Graphics/SVG/1.1/DTD/svg11.dtd'><svg height="8.26772in" style="shape-rendering:geometricPrecision; text-rendering:geometricPrecision; image-rendering:optimizeQuality; fill-rule:evenodd; clip-rule:evenodd" version="1.1" viewBox="0 0 826772 826772" width="8.26772in" xml:space="preserve" xmlns="http://www.w3.org/2000/svg" xmlns:xlink="http://www.w3.org/1999/xlink"><defs><style type="text/css">
   <![CDATA[
    .fil0 {fill:#DD4B39}
    .fil2 {fill:#2E373C;fill-rule:nonzero}
    .fil1 {fill:white;fill-rule:nonzero}
   ]]>
  </style></defs><g id="Layer_x0020_1"><polygon class="fil0" points="0,0 826772,0 826772,826772 0,826772 "/><g id="_2016287068976"><path class="fil1" d="M220346 590821l96099 0c0,0 104862,-3885 104862,-109919 0,0 4580,-86305 -61818,-86305 0,0 50355,-3941 50355,-66095 0,-62190 -41199,-92550 -93399,-92550l-96099 0 -2840 0 -68703 0 0 354869 68686 0 2857 0zm0 -293067l0 0 83731 0 12368 0c0,0 23314,0 23314,36107 0,36144 -13717,41396 -29277,41396l-90136 0 0 -77503zm0 131087l0 0 96099 0c0,0 34758,-513 34758,47713 0,40633 -25959,44837 -39604,45157 -2553,35 -4719,0 -6174,0l-85079 0 0 -92870z"/><path class="fil1" d="M561179 324368c-126937,0 -126830,133503 -126830,133503 0,0 -8729,132844 126830,132844 0,0 112974,6779 112974,-92425l-58112 0c0,0 1936,37386 -52910,37386 0,0 -58110,4080 -58110,-60470l171065 0c-34,0 18684,-150838 -114907,-150838zm-56833 104473l0 0c0,0 7097,-53584 58112,-53584 51012,0 50320,53584 50320,53584l-108432 0z"/><polygon class="fil1" points="490135,256411 626332,256411 626332,289183 490135,289183 "/><path class="fil1" d="M220346 590821l96099 0c0,0 104862,-3885 104862,-109919 0,0 4580,-86305 -61818,-86305 0,0 50355,-3941 50355,-66095 0,-62190 -41199,-92550 -93399,-92550l-96099 0 -2840 0 -68703 0 0 354869 68686 0 2857 0zm0 -293067l0 0 83731 0 12368 0c0,0 23314,0 23314,36107 0,36144 -13717,41396 -29277,41396l-90136 0 0 -77503zm0 131087l0 0 96099 0c0,0 34758,-513 34758,47713 0,40633 -25959,44837 -39604,45157 -2553,35 -4719,0 -6174,0l-85079 0 0 -92870z"/><path class="fil1" d="M561179 324368c-126937,0 -126830,133503 -126830,133503 0,0 -8729,132844 126830,132844 0,0 112974,6779 112974,-92425l-58112 0c0,0 1936,37386 -52910,37386 0,0 -58110,4080 -58110,-60470l171065 0c-34,0 18684,-150838 -114907,-150838zm-56833 104473l0 0c0,0 7097,-53584 58112,-53584 51012,0 50320,53584 50320,53584l-108432 0z"/><polygon class="fil1" points="490135,256411 626332,256411 626332,289183 490135,289183 "/><path class="fil1" d="M220346 590821l96099 0c0,0 104862,-3885 104862,-109919 0,0 4580,-86305 -61818,-86305 0,0 50355,-3941 50355,-66095 0,-62190 -41199,-92550 -93399,-92550l-96099 0 -2840 0 -68703 0 0 354869 68686 0 2857 0zm0 -293067l0 0 83731 0 12368 0c0,0 23314,0 23314,36107 0,36144 -13717,41396 -29277,41396l-90136 0 0 -77503zm0 131087l0 0 96099 0c0,0 34758,-513 34758,47713 0,40633 -25959,44837 -39604,45157 -2553,35 -4719,0 -6174,0l-85079 0 0 -92870z"/><path class="fil1" d="M561179 324368c-126937,0 -126830,133503 -126830,133503 0,0 -8729,132844 126830,132844 0,0 112974,6779 112974,-92425l-58112 0c0,0 1936,37386 -52910,37386 0,0 -58110,4080 -58110,-60470l171065 0c-34,0 18684,-150838 -114907,-150838zm-56833 104473l0 0c0,0 7097,-53584 58112,-53584 51012,0 50320,53584 50320,53584l-108432 0z"/><polygon class="fil1" points="490135,256411 626332,256411 626332,289183 490135,289183 "/></g><g id="_2016287071216"><path class="fil1" d="M220346 590821l96099 0c0,0 104862,-3885 104862,-109919 0,0 4580,-86305 -61818,-86305 0,0 50355,-3941 50355,-66095 0,-62190 -41199,-92550 -93399,-92550l-96099 0 -2840 0 -68703 0 0 354869 68686 0 2857 0zm0 -293067l0 0 83731 0 12368 0c0,0 23314,0 23314,36107 0,36144 -13717,41396 -29277,41396l-90136 0 0 -77503zm0 131087l0 0 96099 0c0,0 34758,-513 34758,47713 0,40633 -25959,44837 -39604,45157 -2553,35 -4719,0 -6174,0l-85079 0 0 -92870z"/><path class="fil1" d="M561179 324368c-126937,0 -126830,133503 -126830,133503 0,0 -8729,132844 126830,132844 0,0 112974,6779 112974,-92425l-58112 0c0,0 1936,37386 -52910,37386 0,0 -58110,4080 -58110,-60470l171065 0c-34,0 18684,-150838 -114907,-150838zm-56833 104473l0 0c0,0 7097,-53584 58112,-53584 51012,0 50320,53584 50320,53584l-108432 0z"/><polygon class="fil1" points="490135,256411 626332,256411 626332,289183 490135,289183 "/><path class="fil1" d="M220346 590821l96099 0c0,0 104862,-3885 104862,-109919 0,0 4580,-86305 -61818,-86305 0,0 50355,-3941 50355,-66095 0,-62190 -41199,-92550 -93399,-92550l-96099 0 -2840 0 -68703 0 0 354869 68686 0 2857 0zm0 -293067l0 0 83731 0 12368 0c0,0 23314,0 23314,36107 0,36144 -13717,41396 -29277,41396l-90136 0 0 -77503zm0 131087l0 0 96099 0c0,0 34758,-513 34758,47713 0,40633 -25959,44837 -39604,45157 -2553,35 -4719,0 -6174,0l-85079 0 0 -92870z"/><path class="fil1" d="M561179 324368c-126937,0 -126830,133503 -126830,133503 0,0 -8729,132844 126830,132844 0,0 112974,6779 112974,-92425l-58112 0c0,0 1936,37386 -52910,37386 0,0 -58110,4080 -58110,-60470l171065 0c-34,0 18684,-150838 -114907,-150838zm-56833 104473l0 0c0,0 7097,-53584 58112,-53584 51012,0 50320,53584 50320,53584l-108432 0z"/><polygon class="fil1" points="490135,256411 626332,256411 626332,289183 490135,289183 "/><path class="fil1" d="M220346 590821l96099 0c0,0 104862,-3885 104862,-109919 0,0 4580,-86305 -61818,-86305 0,0 50355,-3941 50355,-66095 0,-62190 -41199,-92550 -93399,-92550l-96099 0 -2840 0 -68703 0 0 354869 68686 0 2857 0zm0 -293067l0 0 83731 0 12368 0c0,0 23314,0 23314,36107 0,36144 -13717,41396 -29277,41396l-90136 0 0 -77503zm0 131087l0 0 96099 0c0,0 34758,-513 34758,47713 0,40633 -25959,44837 -39604,45157 -2553,35 -4719,0 -6174,0l-85079 0 0 -92870z"/><path class="fil1" d="M561179 324368c-126937,0 -126830,133503 -126830,133503 0,0 -8729,132844 126830,132844 0,0 112974,6779 112974,-92425l-58112 0c0,0 1936,37386 -52910,37386 0,0 -58110,4080 -58110,-60470l171065 0c-34,0 18684,-150838 -114907,-150838zm-56833 104473l0 0c0,0 7097,-53584 58112,-53584 51012,0 50320,53584 50320,53584l-108432 0z"/><polygon class="fil1" points="490135,256411 626332,256411 626332,289183 490135,289183 "/></g><g id="_2016287076528"><path class="fil2" d="M233850 590821l96099 0c0,0 104862,-3885 104862,-109919 0,0 4580,-86305 -61818,-86305 0,0 50355,-3941 50355,-66095 0,-62190 -41199,-92550 -93399,-92550l-96099 0 -2840 0 -68703 0 0 354869 68686 0 2857 0zm0 -293067l0 0 83731 0 12368 0c0,0 23314,0 23314,36107 0,36144 -13717,41396 -29276,41396l-90137 0 0 -77503zm0 131087l0 0 96099 0c0,0 34758,-513 34758,47713 0,40633 -25959,44837 -39604,45157 -2553,35 -4718,0 -6174,0l-85079 0 0 -92870z"/><path class="fil2" d="M574683 324368c-126937,0 -126830,133503 -126830,133503 0,0 -8729,132844 126830,132844 0,0 112974,6779 112974,-92425l-58112 0c0,0 1936,37386 -52910,37386 0,0 -58109,4080 -58109,-60470l171065 0c-35,0 18683,-150838 -114908,-150838zm-56833 104473l0 0c0,0 7098,-53584 58112,-53584 51012,0 50320,53584 50320,53584l-108432 0z"/><polygon class="fil2" points="503639,256411 639837,256411 639837,289183 503639,289183 "/><path class="fil2" d="M233850 590821l96099 0c0,0 104862,-3885 104862,-109919 0,0 4580,-86305 -61818,-86305 0,0 50355,-3941 50355,-66095 0,-62190 -41199,-92550 -93399,-92550l-96099 0 -2840 0 -68703 0 0 354869 68686 0 2857 0zm0 -293067l0 0 83731 0 12368 0c0,0 23314,0 23314,36107 0,36144 -13717,41396 -29276,41396l-90137 0 0 -77503zm0 131087l0 0 96099 0c0,0 34758,-513 34758,47713 0,40633 -25959,44837 -39604,45157 -2553,35 -4718,0 -6174,0l-85079 0 0 -92870z"/><path class="fil2" d="M574683 324368c-126937,0 -126830,133503 -126830,133503 0,0 -8729,132844 126830,132844 0,0 112974,6779 112974,-92425l-58112 0c0,0 1936,37386 -52910,37386 0,0 -58109,4080 -58109,-60470l171065 0c-35,0 18683,-150838 -114908,-150838zm-56833 104473l0 0c0,0 7098,-53584 58112,-53584 51012,0 50320,53584 50320,53584l-108432 0z"/><polygon class="fil2" points="503639,256411 639837,256411 639837,289183 503639,289183 "/><path class="fil2" d="M233850 590821l96099 0c0,0 104862,-3885 104862,-109919 0,0 4580,-86305 -61818,-86305 0,0 50355,-3941 50355,-66095 0,-62190 -41199,-92550 -93399,-92550l-96099 0 -2840 0 -68703 0 0 354869 68686 0 2857 0zm0 -293067l0 0 83731 0 12368 0c0,0 23314,0 23314,36107 0,36144 -13717,41396 -29276,41396l-90137 0 0 -77503zm0 131087l0 0 96099 0c0,0 34758,-513 34758,47713 0,40633 -25959,44837 -39604,45157 -2553,35 -4718,0 -6174,0l-85079 0 0 -92870z"/><path class="fil2" d="M574683 324368c-126937,0 -126830,133503 -126830,133503 0,0 -8729,132844 126830,132844 0,0 112974,6779 112974,-92425l-58112 0c0,0 1936,37386 -52910,37386 0,0 -58109,4080 -58109,-60470l171065 0c-35,0 18683,-150838 -114908,-150838zm-56833 104473l0 0c0,0 7098,-53584 58112,-53584 51012,0 50320,53584 50320,53584l-108432 0z"/><polygon class="fil2" points="503639,256411 639837,256411 639837,289183 503639,289183 "/></g><g id="_2016287076944"><path class="fil1" d="M220346 590821l96099 0c0,0 104862,-3885 104862,-109919 0,0 4580,-86305 -61818,-86305 0,0 50355,-3941 50355,-66095 0,-62190 -41199,-92550 -93399,-92550l-96099 0 -2840 0 -68703 0 0 354869 68686 0 2857 0zm0 -293067l0 0 83731 0 12368 0c0,0 23314,0 23314,36107 0,36144 -13717,41396 -29277,41396l-90136 0 0 -77503zm0 131087l0 0 96099 0c0,0 34758,-513 34758,47713 0,40633 -25959,44837 -39604,45157 -2553,35 -4719,0 -6174,0l-85079 0 0 -92870z"/><path class="fil1" d="M561179 324368c-126937,0 -126830,133503 -126830,133503 0,0 -8729,132844 126830,132844 0,0 112974,6779 112974,-92425l-58112 0c0,0 1936,37386 -52910,37386 0,0 -58110,4080 -58110,-60470l171065 0c-34,0 18684,-150838 -114907,-150838zm-56833 104473l0 0c0,0 7097,-53584 58112,-53584 51012,0 50320,53584 50320,53584l-108432 0z"/><polygon class="fil1" points="490135,256411 626332,256411 626332,289183 490135,289183 "/><path class="fil1" d="M220346 590821l96099 0c0,0 104862,-3885 104862,-109919 0,0 4580,-86305 -61818,-86305 0,0 50355,-3941 50355,-66095 0,-62190 -41199,-92550 -93399,-92550l-96099 0 -2840 0 -68703 0 0 354869 68686 0 2857 0zm0 -293067l0 0 83731 0 12368 0c0,0 23314,0 23314,36107 0,36144 -13717,41396 -29277,41396l-90136 0 0 -77503zm0 131087l0 0 96099 0c0,0 34758,-513 34758,47713 0,40633 -25959,44837 -39604,45157 -2553,35 -4719,0 -6174,0l-85079 0 0 -92870z"/><path class="fil1" d="M561179 324368c-126937,0 -126830,133503 -126830,133503 0,0 -8729,132844 126830,132844 0,0 112974,6779 112974,-92425l-58112 0c0,0 1936,37386 -52910,37386 0,0 -58110,4080 -58110,-60470l171065 0c-34,0 18684,-150838 -114907,-150838zm-56833 104473l0 0c0,0 7097,-53584 58112,-53584 51012,0 50320,53584 50320,53584l-108432 0z"/><polygon class="fil1" points="490135,256411 626332,256411 626332,289183 490135,289183 "/><path class="fil1" d="M220346 590821l96099 0c0,0 104862,-3885 104862,-109919 0,0 4580,-86305 -61818,-86305 0,0 50355,-3941 50355,-66095 0,-62190 -41199,-92550 -93399,-92550l-96099 0 -2840 0 -68703 0 0 354869 68686 0 2857 0zm0 -293067l0 0 83731 0 12368 0c0,0 23314,0 23314,36107 0,36144 -13717,41396 -29277,41396l-90136 0 0 -77503zm0 131087l0 0 96099 0c0,0 34758,-513 34758,47713 0,40633 -25959,44837 -39604,45157 -2553,35 -4719,0 -6174,0l-85079 0 0 -92870z"/><path class="fil1" d="M561179 324368c-126937,0 -126830,133503 -126830,133503 0,0 -8729,132844 126830,132844 0,0 112974,6779 112974,-92425l-58112 0c0,0 1936,37386 -52910,37386 0,0 -58110,4080 -58110,-60470l171065 0c-34,0 18684,-150838 -114907,-150838zm-56833 104473l0 0c0,0 7097,-53584 58112,-53584 51012,0 50320,53584 50320,53584l-108432 0z"/><polygon class="fil1" points="490135,256411 626332,256411 626332,289183 490135,289183 "/></g></g></svg>